<svg width="21" height="24" viewBox="0 0 21 24" fill="none" xmlns="http://www.w3.org/2000/svg">
<path d="M20.7577 16.8778C20.1056 15.7444 19.3208 13.5889 19.3208 9.77778V8.98889C19.3208 4.06667 15.397 0.0333333 10.5669 0H10.5005C9.34079 0.00145822 8.19269 0.232533 7.12178 0.680031C6.05086 1.12753 5.07812 1.78269 4.25908 2.6081C3.44004 3.43351 2.79074 4.413 2.34827 5.49066C1.90579 6.56832 1.6788 7.72304 1.68026 8.88889V9.77778C1.68026 13.5889 0.895493 15.7444 0.243366 16.8778C0.085652 17.1479 0.0017067 17.455 2.57506e-05 17.7682C-0.00165519 18.0814 0.078988 18.3894 0.233794 18.6612C0.3886 18.933 0.612074 19.1588 0.881602 19.3158C1.15113 19.4729 1.45714 19.5556 1.76868 19.5556H6.07935C6.07935 20.7343 6.54515 21.8648 7.37429 22.6983C8.20342 23.5317 9.32797 24 10.5005 24C11.6731 24 12.7977 23.5317 13.6268 22.6983C14.4559 21.8648 14.9217 20.7343 14.9217 19.5556H19.2324C19.5439 19.5576 19.8503 19.4763 20.1202 19.3201C20.3902 19.1639 20.614 18.9384 20.7688 18.6667C20.9222 18.3934 21.0019 18.0845 21 17.7707C20.998 17.4569 20.9145 17.1491 20.7577 16.8778ZM10.5005 22.2222C9.79789 22.2193 9.12485 21.9374 8.628 21.4379C8.13115 20.9385 7.85073 20.2619 7.84783 19.5556H13.1533C13.1504 20.2619 12.8699 20.9385 12.3731 21.4379C11.8762 21.9374 11.2032 22.2193 10.5005 22.2222Z" fill="#BCBCBC"/>
</svg>
