<svg width="22" height="24" viewBox="0 0 22 24" fill="none" xmlns="http://www.w3.org/2000/svg">
<path d="M2.75 24C1.99375 24 1.34658 23.7317 0.8085 23.195C0.2695 22.6574 0 22.0114 0 21.2571V8.91429C0 8.48 0.0976247 8.06857 0.292875 7.68C0.487208 7.29143 0.75625 6.97143 1.1 6.72L9.35 0.548572C9.60208 0.365714 9.86563 0.228571 10.1406 0.137143C10.4156 0.0457142 10.7021 0 11 0C11.2979 0 11.5844 0.0457142 11.8594 0.137143C12.1344 0.228571 12.3979 0.365714 12.65 0.548572L20.9 6.72C21.2438 6.97143 21.5133 7.29143 21.7085 7.68C21.9028 8.06857 22 8.48 22 8.91429V21.2571C22 22.0114 21.731 22.6574 21.1929 23.195C20.6539 23.7317 20.0063 24 19.25 24H13.75V14.4H8.25V24H2.75Z" fill="white"/>
</svg>
